<svg xmlns="http://www.w3.org/2000/svg" viewBox="0 0 142.397 52.446"><defs><style>.a{fill:#040000;}</style></defs><title>logo</title><path class="a" d="M29.68,21.894c0,10.65-6.354,16.475-14.887,16.475A15.357,15.357,0,0,1,6.7,36.25v16.2H0V6.789H6.571v3.8a12,12,0,0,1,9.623-4.3C23.2,6.291,29.68,11.149,29.68,21.894Zm-6.821.155c0-6.135-3.083-10.433-7.91-10.433-4.64,0-8.1,4.018-8.1,9.81v8.565a9.731,9.731,0,0,0,7.1,3.021C19.371,33.012,22.859,28.589,22.859,22.049Z"/><path class="a" d="M70.219,9.873v28H63.772v-3.4a10.077,10.077,0,0,1-8.315,3.893c-7.879,0-13.547-5.886-13.547-14.918,0-10.059,7.069-17.16,17.1-17.16A18.655,18.655,0,0,1,70.219,9.873ZM63.4,25.538V13.267A9.778,9.778,0,0,0,58.354,11.8c-5.668,0-9.686,4.952-9.686,11.648,0,5.855,3.083,9.561,7.288,9.561A7.51,7.51,0,0,0,63.4,25.538Z"/><path class="a" d="M85.485,35.472l.032-6.82a16.979,16.979,0,0,0,10.339,3.862c3.364,0,5.2-1.464,5.2-3.426,0-5.761-15.385-4.048-15.385-13.734,0-5.015,4.079-9.063,11.3-9.063A15.252,15.252,0,0,1,105.7,8.813V14.98a14.3,14.3,0,0,0-8.5-3.239c-2.989,0-5.045,1.4-5.045,3.27,0,5.139,15.323,4.112,15.323,14.358,0,5.729-4.765,9-11.71,9A19.356,19.356,0,0,1,85.485,35.472Z"/><path class="a" d="M142.4,31.517v1.744a10.453,10.453,0,0,1-9.031,5.108c-6.228,0-7.755-5.045-7.755-9.281V12.458h-4.36V11.243l3.862-4.454L130.812,0H132V6.789h9.624v5.7h-9.561V26.752c0,2.336,0,5.886,4.609,5.886A17.147,17.147,0,0,0,142.4,31.517Z"/></svg>